<?xml version="1.0" encoding="utf-8"?>
<!-- Generator: Adobe Illustrator 19.2.1, SVG Export Plug-In . SVG Version: 6.00 Build 0)  -->
<svg version="1.1" id="layer" xmlns="http://www.w3.org/2000/svg" xmlns:xlink="http://www.w3.org/1999/xlink" x="0px" y="0px"
	 viewBox="0 0 650 650" style="enable-background:new 0 0 650 650;" xml:space="preserve">
<style type="text/css">
	.st0{fill:#00539F;}
	.st1{fill:#00AEEF;}
	.st2{fill:none;stroke:#00AEEF;stroke-width:0.2173;}
	.st3{fill:#FFFFFF;}
</style>
<path class="st0" d="M40.8,298.1l-2.6,1.5c-1-1.6-2.3-2.4-4.1-2.4c-1.1,0-2.1,0.3-2.9,1c-0.9,0.7-1.4,1.6-1.4,2.7
	c0,1.5,1.2,2.8,3.6,3.7l1.8,0.7c2,0.8,3.6,1.7,4.6,2.8c1.2,1.3,1.8,3,1.8,5c0,2.3-0.8,4.3-2.4,5.8c-1.6,1.5-3.5,2.3-5.8,2.3
	c-2.1,0-3.8-0.7-5.3-2c-1.5-1.4-2.4-3.1-2.6-5.2l3.2-0.7c0,1.4,0.4,2.6,1.4,3.5c1,0.9,2.1,1.4,3.6,1.4c1.4,0,2.5-0.5,3.4-1.5
	c0.9-1,1.3-2.2,1.3-3.6c0-1.3-0.5-2.3-1.4-3.2c-0.6-0.6-1.6-1.2-3-1.8l-1.8-0.8c-1.7-0.8-3-1.6-3.9-2.4c-1.1-1.1-1.7-2.5-1.7-4.2
	c0-2,0.8-3.7,2.3-4.9c1.5-1.2,3.2-1.8,5.2-1.8C37.1,294.2,39.3,295.5,40.8,298.1"/>
<path class="st0" d="M68.7,298.1l-2.6,1.5c-0.9-1.6-2.3-2.4-4.1-2.4c-1.1,0-2.1,0.3-2.9,1c-0.9,0.7-1.4,1.6-1.4,2.7
	c0,1.5,1.2,2.8,3.6,3.7l1.8,0.7c2,0.8,3.6,1.7,4.6,2.8c1.2,1.3,1.8,3,1.8,5c0,2.3-0.8,4.3-2.4,5.8c-1.6,1.5-3.5,2.3-5.8,2.3
	c-2.1,0-3.8-0.7-5.3-2c-1.5-1.4-2.3-3.1-2.6-5.2l3.2-0.7c0,1.4,0.4,2.6,1.4,3.5c1,0.9,2.1,1.4,3.6,1.4c1.4,0,2.5-0.5,3.4-1.5
	c0.9-1,1.3-2.2,1.3-3.6c0-1.3-0.5-2.3-1.4-3.2c-0.6-0.6-1.6-1.2-3-1.8l-1.8-0.8c-1.8-0.8-3-1.6-3.9-2.4c-1.1-1.1-1.7-2.5-1.7-4.2
	c0-2,0.8-3.7,2.3-4.9c1.5-1.2,3.2-1.8,5.2-1.8C65,294.2,67.2,295.5,68.7,298.1"/>
<polygon class="st0" points="80.7,297.7 80.7,320.7 77.5,320.7 77.5,297.7 71.4,297.7 71.4,294.7 86.8,294.7 86.8,297.7 "/>
<polygon class="st0" points="90.2,320.7 90.2,294.7 104,294.7 104,297.7 93.4,297.7 93.4,305 103.7,305 103.7,307.9 93.4,307.9 
	93.4,317.7 104,317.7 104,320.7 "/>
<polygon class="st0" points="120.9,321.2 113.2,303.6 113.1,303.6 110.1,320.7 106.8,320.7 112,293.6 120.9,314.1 129.7,293.6 
	134.9,320.7 131.6,320.7 128.6,303.6 128.5,303.6 "/>
<path class="st0" d="M138.2,294.7h3.2v15.3c0,5.4,2.1,8.2,6.2,8.2c4.1,0,6.2-2.7,6.2-8.2v-15.3h3.2v16.4c0,2.9-0.8,5.3-2.5,7.2
	c-1.7,1.9-4,2.9-6.9,2.9c-2.9,0-5.2-1-6.9-2.9c-1.7-1.9-2.5-4.3-2.5-7.2V294.7z"/>
<polygon class="st0" points="41.8,355.1 33.9,337.4 33.8,337.4 30.7,354.5 27.3,354.5 32.7,327.5 41.8,347.9 50.9,327.5 56.3,354.5 
	52.9,354.5 49.8,337.4 49.7,337.4 "/>
<polygon class="st0" points="60.1,354.5 60.1,328.6 74.3,328.6 74.3,331.5 63.4,331.5 63.4,338.8 74,338.8 74,341.8 63.4,341.8 
	63.4,351.6 74.3,351.6 74.3,354.5 "/>
<path class="st0" d="M78.9,354.5v-25.9h5.5c4.3,0,7.8,1.1,10.4,3.2c2.9,2.3,4.4,5.5,4.4,9.7c0,4.2-1.4,7.5-4.3,9.9
	c-2.7,2.2-6.2,3.2-10.6,3.2H78.9z M82.2,331.5v20h1.2c3.7,0,6.7-0.7,8.8-2.2c2.5-1.7,3.8-4.3,3.8-7.8c0-3.5-1.3-6.1-3.8-7.8
	c-2.1-1.4-5.1-2.2-8.8-2.2H82.2z"/>
<rect x="103.3" y="328.6" class="st0" width="3.3" height="25.9"/>
<path class="st0" d="M131.7,329.8v3.8c-1.9-1.7-4.3-2.5-7-2.5c-2.9,0-5.4,1-7.4,3.1c-2,2.1-3,4.6-3,7.5c0,2.9,1,5.3,3,7.4
	c2,2.1,4.5,3.1,7.4,3.1c2.7,0,5-0.9,7-2.7v3.8c-2.1,1.2-4.4,1.8-6.9,1.8c-3.8,0-7-1.3-9.7-3.9c-2.7-2.6-4-5.8-4-9.5
	c0-3.8,1.4-7.1,4.1-9.7c2.7-2.6,6.1-4,10-4C127.5,328,129.7,328.6,131.7,329.8"/>
<path class="st0" d="M152.3,348h-12.1l-3,6.5h-3.5l12.6-27.1l12.6,27.1h-3.5L152.3,348z M150.9,345.1l-4.7-10.5l-4.7,10.5H150.9z"/>
<polygon class="st0" points="165.2,328.6 165.2,351.6 173.3,351.6 173.3,354.5 161.9,354.5 161.9,328.6 "/>
<rect x="45.9" y="294.8" class="st0" width="3.3" height="25.9"/>
<polygon class="st0" points="165.2,294.8 165.2,317.8 173.3,317.8 173.3,320.7 161.9,320.7 161.9,294.8 "/>
<path class="st1" d="M248,288.8c-7.7,0-14.6,3.6-18.6,9.1c-4.1-5.5-10.9-9.1-18.6-9.1c-12.5,0-22.7,9.5-22.7,21.2
	c0,19.2,41.4,52.7,41.4,52.7s41.4-32.9,41.4-52.7C270.7,298.3,260.5,288.8,248,288.8"/>
<path class="st2" d="M248,288.8c-7.7,0-14.6,3.6-18.6,9.1c-4.1-5.5-10.9-9.1-18.6-9.1c-12.5,0-22.7,9.5-22.7,21.2
	c0,19.2,41.4,52.7,41.4,52.7s41.4-32.9,41.4-52.7C270.7,298.3,260.5,288.8,248,288.8z"/>
<polygon class="st3" points="248,330.2 236.4,330.2 236.4,341.8 222.3,341.8 222.3,330.2 210.7,330.2 210.7,316 222.3,316 
	222.3,304.5 236.4,304.5 236.4,316 248,316 "/>
<path class="st0" d="M284,352.1c3.6,0,6-0.6,7.1-1.8c1.1-1.2,1.6-2.9,1.6-5.2v-41.9c0-2.4-0.6-3.9-1.8-4.7c-1.2-0.7-3.4-1.2-6.6-1.5
	v-2.3h23.9l18.7,40.9l0.8,0l18.6-40.9h23.9v2.3c-3.2,0.2-5.4,0.8-6.6,1.7c-1.2,0.9-1.8,3-1.8,6.3v39.1c0,3.2,0.6,5.4,1.8,6.3
	c1.2,1,3.4,1.6,6.6,1.6v2.3h-31.5v-2.3c2.8-0.1,4.9-0.5,6.4-1.3c1.4-0.8,2.1-2.5,2.1-5.1v-43.2h-0.7l-23.3,51.8h-2.6l-23.5-50.8
	l-0.4-0.1v39.9c0,2.9,0.6,5.1,1.8,6.4c1.2,1.3,3.8,2.1,7.8,2.2v2.3H284V352.1z"/>
<path class="st0" d="M383.7,329.5c0.1-4.5,0.7-8,1.7-10.4c1-2.4,2.8-3.6,5.5-3.6c2.6,0,4.3,1,5.2,3.1c0.9,2.1,1.3,5.7,1.4,10.8
	H383.7z M369.4,334.1c0,7.5,2.2,13,6.6,16.4c4.4,3.4,9.1,5.1,14.1,5.1c3.5,0,6.6-0.6,9.3-1.7c4.2-1.7,7.8-4.8,10.9-9.3l-2.3-1.3
	c-1.9,1.9-3.5,3.2-4.8,4c-2.1,1.3-4.4,1.9-6.8,1.9c-5,0-8.5-2.4-10.5-7.2c-1.1-2.6-1.8-5.6-2-9.2h26c0-0.8-0.1-2-0.3-3.5
	c-0.5-3.3-1.3-5.9-2.5-8c-1.6-2.7-3.9-4.8-6.8-6.3c-3-1.5-6.1-2.3-9.5-2.3c-5.9,0-10.9,1.9-15.1,5.6
	C371.5,322.1,369.4,327.4,369.4,334.1"/>
<path class="st0" d="M598.7,329.5c0.1-4.5,0.7-8,1.7-10.4c1-2.4,2.8-3.6,5.5-3.6c2.6,0,4.3,1,5.2,3.1c0.9,2.1,1.3,5.7,1.4,10.8
	H598.7z M584.5,334.1c0,7.5,2.2,13,6.6,16.4c4.4,3.4,9.1,5.1,14.1,5.1c3.5,0,6.6-0.6,9.3-1.7c4.2-1.7,7.8-4.8,11-9.3l-2.3-1.3
	c-1.9,1.9-3.5,3.2-4.8,4c-2.1,1.3-4.4,1.9-6.8,1.9c-5,0-8.5-2.4-10.5-7.2c-1.1-2.6-1.8-5.6-2-9.2h26c0-0.8-0.1-2-0.3-3.5
	c-0.5-3.3-1.3-5.9-2.5-8c-1.6-2.7-3.9-4.8-6.8-6.3c-3-1.5-6.1-2.3-9.5-2.3c-5.9,0-10.9,1.9-15.1,5.6
	C586.6,322.1,584.5,327.4,584.5,334.1"/>
<path class="st0" d="M436.5,350.6c-3.2,0-5.4-2.1-6.6-6.2c-0.6-2.3-0.9-5.7-0.9-10.3c0-4.3,0.3-7.5,1-9.9c1.2-4.3,3.5-6.5,6.9-6.5
	c2.3,0,4.1,0.7,5.5,2.1c1.4,1.4,2.1,2.5,2.1,3.2v21.5c0,0.7-0.8,1.9-2.4,3.6C440.4,349.8,438.6,350.6,436.5,350.6 M415,335.3
	c0,6.3,1.7,11.2,5.2,14.8c3.4,3.6,7.5,5.5,12.1,5.5c2.7,0,5.3-0.6,7.6-1.9c1.5-0.8,3.1-2.1,4.9-3.9v5.8c3.9-1,6.6-1.6,8.2-1.8
	c1.6-0.2,5-0.6,10.3-1.1v-2.2c-2.2-0.2-3.6-0.6-4.4-1.3c-0.7-0.7-1.1-1.9-1.1-3.7v-50.7h-20.5v2.2c2.9,0.1,4.8,0.4,5.7,1
	c0.9,0.5,1.4,1.9,1.4,4.1v16.1c-1.8-1.8-3.3-3-4.6-3.7c-1.9-1.1-4.2-1.7-6.7-1.7c-5,0-9.3,2-12.9,6C416.8,322.8,415,328.3,415,335.3
	"/>
<path class="st0" d="M468.2,352.1c2.6-0.1,4.4-0.4,5.5-0.9c1.9-0.9,2.8-2.7,2.8-5.3v-42.7c0-2.5-0.9-4.3-2.7-5.1
	c-1-0.5-2.9-0.9-5.6-1v-2.3h33.2v2.3c-3.9,0.1-6.5,0.6-7.8,1.5s-1.9,3-1.9,6.5v41.7c0,2,0.5,3.2,1.6,3.9c1.1,0.6,3.2,0.9,6.4,0.9
	c5.7,0,10.5-1.2,14.4-3.5c3.9-2.3,7.2-6.9,10-13.7h2.8l-3.9,20h-54.9V352.1z"/>
<path class="st0" d="M534.8,295.7c1.4-1.3,3.2-2,5.2-2c2,0,3.7,0.7,5.2,2c1.4,1.3,2.2,3,2.2,4.9c0,1.9-0.7,3.5-2.2,4.8
	c-1.4,1.3-3.1,2-5.2,2c-2,0-3.8-0.7-5.2-2c-1.4-1.3-2.1-2.9-2.1-4.8C532.7,298.6,533.4,297,534.8,295.7 M528.6,352.3
	c1.6-0.2,2.8-0.6,3.4-1.1c0.9-0.8,1.4-2.2,1.4-4.2v-25.9c0-1.8-0.3-3-1-3.6c-0.6-0.6-1.9-1.1-3.8-1.4v-2.2h18.1v33.5
	c0,1.9,0.3,3.2,0.9,3.7c0.6,0.5,1.8,1,3.5,1.3v2.2h-22.6V352.3z"/>
<path class="st0" d="M555.5,352.3c2-0.1,3.4-0.5,4.2-1.2c0.9-0.7,1.3-2,1.3-4.1v-28.6h-5.5v-3.9h5.5v-3.3c0-4.1,0.7-7.5,2.1-10.2
	c2.6-4.9,7.5-7.4,14.6-7.4c3.8,0,7,0.8,9.6,2.4c2.6,1.6,3.9,3.7,3.9,6.3c0,1.7-0.6,3-1.6,4c-1.1,1-2.6,1.5-4.4,1.5
	c-1.5,0-2.8-0.5-3.9-1.4c-1.1-0.9-1.6-2-1.6-3.3c0-1,0.3-2,1-3.1c0.7-1.1,1-1.7,1-2c0-0.7-0.3-1.2-0.8-1.4c-0.5-0.2-1.2-0.3-1.8-0.3
	c-1.6,0-2.7,0.4-3.6,1.3c-0.8,0.8-1.2,2.6-1.2,5.4v11.4h8.3v3.9h-8.3v27c0,3,0.5,4.9,1.4,5.5c0.9,0.7,3,1.1,6.3,1.3v2.2h-26.5V352.3
	z"/>
</svg>
